# xmcd
#
# Track frame offsets:
#	150
#	30222
#	34800
#	54110
#	93562
#	108742
#	121702
#
# Disc length: 1660 seconds
#
# Revision: 1
# Processed by: cddbd v1.4PL0 Copyright (c) Steve Scherf et al.
# Submitted via: audiograbber 1.80
#
DISCID=4b067a07
DTITLE=Toemreklaus - Savania
DYEAR=1900
DGENRE=
TTITLE0=Savania
TTITLE1=Zip-zup
TTITLE2=Blue diversity
TTITLE3=Sunday for Crowley
TTITLE4=Heavens Root
TTITLE5=Easy Blues
TTITLE6=Bells and bats
EXTD=
EXTT0=
EXTT1=
EXTT2=
EXTT3=
EXTT4=
EXTT5=
EXTT6=
PLAYORDER=
